<svg width="382" height="77" viewBox="0 0 382 77" fill="none" xmlns="http://www.w3.org/2000/svg">
<path d="M45.5 1L1.5 39" stroke="white" stroke-width="0.8"/>
<path d="M1 39L46 75" stroke="white" stroke-width="0.8"/>
<path d="M336.5 76L380.5 38" stroke="white" stroke-width="0.8"/>
<path d="M381 38L336 2" stroke="white" stroke-width="0.8"/>
<path d="M72.3789 29.9609C72.3789 32.3236 71.9336 34.0801 71.043 35.2305C70.1523 36.3685 68.9092 37.0674 67.3135 37.3271C69.6885 37.8096 71.0986 39.3187 71.5439 41.8545L72.9727 50H68.9463C68.8473 49.431 68.7298 48.6084 68.5938 47.5322C68.4701 46.4437 68.3525 45.5283 68.2412 44.7861C68.1299 44.0316 67.9814 43.2337 67.7959 42.3926C67.6104 41.5514 67.363 40.8464 67.0537 40.2773C66.7568 39.7083 66.3981 39.2878 65.9775 39.0156C65.3096 38.7311 64.2148 38.5889 62.6934 38.5889H56.96V50H53.2119V22.3535H61.6543C62.5449 22.3535 63.2995 22.3659 63.918 22.3906C64.5488 22.403 65.2106 22.4401 65.9033 22.502C66.596 22.5638 67.1774 22.6504 67.6475 22.7617C68.1175 22.873 68.5938 23.0215 69.0762 23.207C69.571 23.3926 69.973 23.6214 70.2822 23.8936C70.6038 24.1657 70.9069 24.4935 71.1914 24.877C71.4759 25.248 71.6986 25.681 71.8594 26.1758C72.0202 26.6582 72.1439 27.2148 72.2305 27.8457C72.3294 28.4766 72.3789 29.1816 72.3789 29.9609ZM68.668 31.4268V28.8477C68.668 28.3776 68.6556 28.0127 68.6309 27.7529C68.6185 27.4808 68.5752 27.1963 68.501 26.8994C68.4268 26.5902 68.3092 26.3613 68.1484 26.2129C68 26.0521 67.7959 25.8975 67.5361 25.749C67.2887 25.5882 66.9609 25.4769 66.5527 25.415C66.1569 25.3532 65.6868 25.3037 65.1426 25.2666C64.6107 25.2171 63.9674 25.1924 63.2129 25.1924H56.96V35.6387H63.4355C64.388 35.6387 65.1735 35.5892 65.792 35.4902C66.4105 35.3913 66.9115 35.2552 67.2949 35.082C67.6908 34.8965 67.9876 34.6243 68.1855 34.2656C68.3835 33.8945 68.5133 33.5049 68.5752 33.0967C68.637 32.6761 68.668 32.1195 68.668 31.4268ZM93.6611 50.0186H90.2842L89.9502 47.4023C89.6286 48.3796 88.9235 49.1032 87.835 49.5732C86.7588 50.0433 85.4414 50.2783 83.8828 50.2783C82.819 50.2783 81.9222 50.1732 81.1924 49.9629C80.4626 49.7526 79.8503 49.4495 79.3555 49.0537C78.873 48.6455 78.4958 48.0827 78.2236 47.3652C77.9639 46.6354 77.7783 45.8252 77.667 44.9346C77.568 44.0316 77.5186 42.9121 77.5186 41.5762V29.6455H81.1738V41.4648C81.1738 41.737 81.1676 42.1081 81.1553 42.5781C81.1553 43.0358 81.1553 43.3574 81.1553 43.543C81.1553 44.1986 81.1676 44.7119 81.1924 45.083C81.2171 45.4541 81.279 45.819 81.3779 46.1777C81.4893 46.5365 81.6315 46.8024 81.8047 46.9756C81.9779 47.1364 82.2376 47.2848 82.584 47.4209C82.9303 47.557 83.3262 47.6436 83.7715 47.6807C84.2292 47.7178 84.8105 47.7363 85.5156 47.7363C86.3073 47.7363 86.9814 47.6807 87.5381 47.5693C88.0947 47.458 88.5339 47.3158 88.8555 47.1426C89.1771 46.957 89.4183 46.7096 89.5791 46.4004C89.7523 46.0911 89.8636 45.7881 89.9131 45.4912C89.9626 45.1943 89.9873 44.8232 89.9873 44.3779C89.9873 44.2295 89.9811 43.9883 89.9688 43.6543C89.9688 43.3203 89.9688 43.0667 89.9688 42.8936V29.6455H93.6611V50.0186ZM116.131 38.6631C116.131 39.6032 116.125 40.3825 116.112 41.001C116.1 41.6195 116.075 42.2936 116.038 43.0234C116.001 43.7533 115.945 44.3532 115.871 44.8232C115.797 45.2809 115.698 45.7757 115.574 46.3076C115.451 46.8271 115.296 47.2477 115.11 47.5693C114.925 47.891 114.702 48.2188 114.442 48.5527C114.183 48.8867 113.88 49.1465 113.533 49.332C113.187 49.5176 112.791 49.6908 112.346 49.8516C111.9 50.0124 111.399 50.1237 110.843 50.1855C110.286 50.2474 109.668 50.2783 108.987 50.2783C105.746 50.2783 103.773 49.332 103.068 47.4395L102.734 50H99.3945V21.8154L103.05 21.5186V31.8906C103.458 30.9258 104.114 30.2145 105.017 29.7568C105.92 29.2992 107.144 29.0703 108.69 29.0703C109.532 29.0703 110.286 29.126 110.954 29.2373C111.634 29.3363 112.222 29.5033 112.717 29.7383C113.224 29.9733 113.663 30.2393 114.034 30.5361C114.405 30.8206 114.715 31.1917 114.962 31.6494C115.209 32.0947 115.407 32.5462 115.556 33.0039C115.716 33.4616 115.84 34.0182 115.927 34.6738C116.013 35.3171 116.069 35.9355 116.094 36.5293C116.118 37.123 116.131 37.8343 116.131 38.6631ZM112.476 35.8799C112.476 35.348 112.469 34.9521 112.457 34.6924C112.457 34.4202 112.432 34.1048 112.383 33.7461C112.346 33.3874 112.29 33.1338 112.216 32.9854C112.142 32.8369 112.024 32.6637 111.863 32.4658C111.715 32.2555 111.529 32.1133 111.307 32.0391C111.096 31.9648 110.818 31.8906 110.472 31.8164C110.138 31.7298 109.76 31.6803 109.34 31.668C108.919 31.6432 108.412 31.6309 107.818 31.6309C106.569 31.6309 105.592 31.7236 104.887 31.9092C104.194 32.0824 103.693 32.3792 103.384 32.7998C103.161 33.2204 103.05 34.1729 103.05 35.6572V45.0088C103.05 46.0231 103.409 46.7344 104.126 47.1426C104.843 47.5384 106.08 47.7363 107.837 47.7363C109.581 47.7363 110.781 47.5817 111.437 47.2725C112.142 47.0251 112.494 45.7757 112.494 43.5244L112.476 35.8799ZM137.265 39.5352C135.78 39.6836 134.859 39.7702 134.5 39.7949H124.388C124.4 41.5885 124.45 43.5553 124.536 45.6953C124.598 46.5241 124.951 47.0745 125.594 47.3467C126.249 47.6064 127.517 47.7363 129.397 47.7363C130.103 47.7363 130.709 47.7116 131.216 47.6621C131.723 47.6003 132.131 47.5013 132.44 47.3652C132.762 47.2168 133.009 47.0807 133.183 46.957C133.368 46.821 133.504 46.6169 133.591 46.3447C133.677 46.0602 133.733 45.8252 133.758 45.6396C133.783 45.4417 133.807 45.151 133.832 44.7676C133.857 44.3717 133.888 44.0501 133.925 43.8027L136.764 44.3223C136.739 45.1882 136.677 45.9242 136.578 46.5303C136.479 47.124 136.312 47.6497 136.077 48.1074C135.842 48.5651 135.564 48.93 135.242 49.2021C134.921 49.4619 134.488 49.6784 133.943 49.8516C133.399 50.0247 132.799 50.1361 132.144 50.1855C131.488 50.2474 130.678 50.2783 129.713 50.2783C128.476 50.2783 127.4 50.2041 126.484 50.0557C125.569 49.9196 124.784 49.7464 124.128 49.5361C123.485 49.3258 122.953 48.9857 122.532 48.5156C122.112 48.0332 121.778 47.5755 121.53 47.1426C121.295 46.7096 121.122 46.0726 121.011 45.2314C120.899 44.3903 120.825 43.6296 120.788 42.9492C120.763 42.2565 120.751 41.304 120.751 40.0918C120.751 38.3848 120.77 37.055 120.807 36.1025C120.856 35.1501 120.98 34.1976 121.178 33.2451C121.376 32.2803 121.642 31.5814 121.976 31.1484C122.31 30.7155 122.804 30.3135 123.46 29.9424C124.116 29.5713 124.889 29.3363 125.779 29.2373C126.67 29.126 127.802 29.0703 129.175 29.0703C130.127 29.0703 130.95 29.1012 131.643 29.1631C132.335 29.2126 132.972 29.3239 133.554 29.4971C134.135 29.6702 134.611 29.8682 134.982 30.0908C135.366 30.3135 135.7 30.6413 135.984 31.0742C136.281 31.5072 136.504 31.9587 136.652 32.4287C136.813 32.8864 136.943 33.4987 137.042 34.2656C137.141 35.0326 137.203 35.8118 137.228 36.6035C137.252 37.3828 137.265 38.36 137.265 39.5352ZM124.406 37.8467H133.609C133.585 36.2633 133.523 34.8161 133.424 33.5049C133.374 32.7503 133.047 32.2493 132.44 32.002C131.847 31.7422 130.752 31.6123 129.156 31.6123C127.387 31.6123 126.268 31.7113 125.798 31.9092C125.588 31.971 125.402 32.0824 125.241 32.2432C125.093 32.3916 124.969 32.6081 124.87 32.8926C124.771 33.1771 124.691 33.443 124.629 33.6904C124.579 33.9378 124.536 34.2842 124.499 34.7295C124.474 35.1624 124.456 35.5026 124.443 35.75C124.431 35.985 124.419 36.3499 124.406 36.8447C124.406 37.3395 124.406 37.6735 124.406 37.8467ZM146.041 50H142.386V22.4277L146.041 22.1309V50ZM179.384 50H175.617V37.3086H163.26V50H159.493V22.3535H163.26V34.377H175.617V22.3535H179.384V50ZM193.355 47.7178C195.112 47.6807 196.33 47.5508 197.011 47.3281C197.703 47.1055 198.05 46.6663 198.05 46.0107C198.186 44.2419 198.254 42.1947 198.254 39.8691C198.254 39.1022 198.223 38.0075 198.161 36.585C198.099 35.1501 198.068 34.0863 198.068 33.3936C198.068 33.1833 198.031 32.9915 197.957 32.8184C197.895 32.6452 197.784 32.5029 197.623 32.3916C197.475 32.2679 197.32 32.1628 197.159 32.0762C197.011 31.9896 196.794 31.9215 196.51 31.8721C196.238 31.8226 196.003 31.7793 195.805 31.7422C195.619 31.7051 195.347 31.6803 194.988 31.668C194.642 31.6556 194.37 31.6494 194.172 31.6494C193.986 31.6494 193.708 31.6494 193.337 31.6494C192.966 31.6494 192.681 31.6494 192.483 31.6494C192.298 31.6494 192.026 31.6556 191.667 31.668C191.321 31.6803 191.049 31.7051 190.851 31.7422C190.665 31.7793 190.43 31.8226 190.146 31.8721C189.873 31.9215 189.657 31.9896 189.496 32.0762C189.348 32.1628 189.193 32.2679 189.032 32.3916C188.884 32.5029 188.772 32.6452 188.698 32.8184C188.636 32.9915 188.605 33.1833 188.605 33.3936C188.605 34.0863 188.575 35.1501 188.513 36.585C188.451 38.0075 188.42 39.1022 188.42 39.8691C188.42 42.1947 188.488 44.2419 188.624 46.0107C188.624 46.6663 188.983 47.1178 189.7 47.3652C190.43 47.6003 191.648 47.7178 193.355 47.7178ZM193.318 50.2783C191.945 50.2783 190.801 50.2227 189.886 50.1113C188.97 50 188.179 49.7588 187.511 49.3877C186.855 49.0042 186.354 48.6022 186.008 48.1816C185.661 47.7487 185.389 47.0745 185.191 46.1592C184.993 45.2314 184.87 44.3161 184.82 43.4131C184.783 42.5101 184.765 41.2546 184.765 39.6465C184.765 38.4466 184.777 37.4447 184.802 36.6406C184.839 35.8366 184.913 35.0511 185.024 34.2842C185.136 33.5049 185.272 32.8802 185.433 32.4102C185.606 31.9277 185.847 31.4762 186.156 31.0557C186.478 30.6227 186.837 30.2949 187.232 30.0723C187.628 29.8496 188.129 29.6579 188.735 29.4971C189.354 29.3239 190.022 29.2126 190.739 29.1631C191.469 29.1012 192.335 29.0703 193.337 29.0703C194.339 29.0703 195.199 29.1012 195.916 29.1631C196.646 29.2126 197.314 29.3239 197.92 29.4971C198.538 29.6579 199.046 29.8496 199.441 30.0723C199.837 30.2949 200.19 30.6227 200.499 31.0557C200.821 31.4762 201.062 31.9277 201.223 32.4102C201.396 32.8802 201.538 33.5049 201.649 34.2842C201.761 35.0511 201.829 35.8366 201.854 36.6406C201.891 37.4447 201.909 38.4466 201.909 39.6465C201.909 41.2546 201.884 42.5101 201.835 43.4131C201.798 44.3161 201.68 45.2314 201.482 46.1592C201.285 47.0745 201.006 47.7487 200.647 48.1816C200.301 48.6146 199.794 49.0166 199.126 49.3877C198.47 49.7588 197.685 50 196.77 50.1113C195.854 50.2227 194.704 50.2783 193.318 50.2783ZM221.781 44.3594C221.781 45.5469 221.651 46.5241 221.392 47.291C221.132 48.0456 220.699 48.6455 220.093 49.0908C219.499 49.5361 218.769 49.8454 217.903 50.0186C217.05 50.1917 215.967 50.2783 214.656 50.2783C213.889 50.2783 213.271 50.2721 212.801 50.2598C212.343 50.2474 211.811 50.2165 211.205 50.167C210.599 50.1175 210.117 50.0433 209.758 49.9443C209.399 49.833 209.009 49.6908 208.589 49.5176C208.181 49.332 207.859 49.1032 207.624 48.8311C207.389 48.5465 207.166 48.2126 206.956 47.8291C206.746 47.4456 206.597 46.9941 206.511 46.4746C206.424 45.9427 206.381 45.3428 206.381 44.6748L209.257 43.9326C209.368 45.3428 209.498 46.2334 209.646 46.6045C209.869 47.1117 210.333 47.4333 211.038 47.5693C211.57 47.6807 212.689 47.7363 214.396 47.7363C215.423 47.7363 216.184 47.693 216.679 47.6064C217.186 47.5075 217.526 47.3281 217.699 47.0684C218.194 46.6602 218.441 45.2686 218.441 42.8936C218.441 42.5348 218.367 42.2318 218.219 41.9844C218.07 41.7246 217.891 41.5329 217.681 41.4092C217.47 41.2731 217.174 41.1618 216.79 41.0752C216.419 40.9762 216.079 40.9144 215.77 40.8896C215.473 40.8525 215.077 40.8092 214.582 40.7598C214.087 40.7103 213.691 40.667 213.395 40.6299C212.492 40.5309 211.756 40.4382 211.187 40.3516C210.618 40.2526 210.042 40.1104 209.461 39.9248C208.88 39.7393 208.422 39.5104 208.088 39.2383C207.766 38.9661 207.469 38.6136 207.197 38.1807C206.925 37.7477 206.733 37.2282 206.622 36.6221C206.511 36.016 206.455 35.2923 206.455 34.4512C206.455 33.5605 206.548 32.806 206.733 32.1875C206.919 31.569 207.191 31.0557 207.55 30.6475C207.909 30.2393 208.397 29.9238 209.016 29.7012C209.646 29.4661 210.352 29.3053 211.131 29.2188C211.91 29.1198 212.863 29.0703 213.988 29.0703C214.693 29.0703 215.269 29.0827 215.714 29.1074C216.172 29.1198 216.666 29.1631 217.198 29.2373C217.743 29.2992 218.182 29.3919 218.516 29.5156C218.85 29.6393 219.184 29.8125 219.518 30.0352C219.864 30.2578 220.13 30.5361 220.315 30.8701C220.501 31.1917 220.649 31.5876 220.761 32.0576C220.884 32.5277 220.946 33.0658 220.946 33.6719L218.46 34.4326C218.41 33.9502 218.361 33.5729 218.312 33.3008C218.274 33.0163 218.182 32.7565 218.033 32.5215C217.885 32.2865 217.73 32.1195 217.569 32.0205C217.409 31.9215 217.13 31.835 216.734 31.7607C216.351 31.6865 215.961 31.6432 215.565 31.6309C215.17 31.6185 214.601 31.6123 213.858 31.6123C212.275 31.6123 211.199 31.7731 210.63 32.0947C210.073 32.404 209.795 32.9173 209.795 33.6348V35.5273C209.795 36.3438 210.036 36.8633 210.519 37.0859C211.013 37.2962 212.325 37.5374 214.452 37.8096C214.675 37.8467 214.842 37.8714 214.953 37.8838C215.807 37.9827 216.481 38.0755 216.976 38.1621C217.483 38.2487 218.015 38.3662 218.571 38.5146C219.128 38.6507 219.549 38.8177 219.833 39.0156C220.13 39.2012 220.421 39.4424 220.705 39.7393C221.002 40.0361 221.212 40.401 221.336 40.834C221.472 41.2669 221.577 41.7679 221.651 42.3369C221.738 42.9059 221.781 43.5801 221.781 44.3594ZM241.078 44.3594C241.078 45.5469 240.948 46.5241 240.688 47.291C240.429 48.0456 239.996 48.6455 239.39 49.0908C238.796 49.5361 238.066 49.8454 237.2 50.0186C236.347 50.1917 235.264 50.2783 233.953 50.2783C233.186 50.2783 232.568 50.2721 232.098 50.2598C231.64 50.2474 231.108 50.2165 230.502 50.167C229.896 50.1175 229.413 50.0433 229.055 49.9443C228.696 49.833 228.306 49.6908 227.886 49.5176C227.478 49.332 227.156 49.1032 226.921 48.8311C226.686 48.5465 226.463 48.2126 226.253 47.8291C226.043 47.4456 225.894 46.9941 225.808 46.4746C225.721 45.9427 225.678 45.3428 225.678 44.6748L228.554 43.9326C228.665 45.3428 228.795 46.2334 228.943 46.6045C229.166 47.1117 229.63 47.4333 230.335 47.5693C230.867 47.6807 231.986 47.7363 233.693 47.7363C234.72 47.7363 235.481 47.693 235.976 47.6064C236.483 47.5075 236.823 47.3281 236.996 47.0684C237.491 46.6602 237.738 45.2686 237.738 42.8936C237.738 42.5348 237.664 42.2318 237.516 41.9844C237.367 41.7246 237.188 41.5329 236.978 41.4092C236.767 41.2731 236.47 41.1618 236.087 41.0752C235.716 40.9762 235.376 40.9144 235.066 40.8896C234.77 40.8525 234.374 40.8092 233.879 40.7598C233.384 40.7103 232.988 40.667 232.691 40.6299C231.788 40.5309 231.052 40.4382 230.483 40.3516C229.914 40.2526 229.339 40.1104 228.758 39.9248C228.176 39.7393 227.719 39.5104 227.385 39.2383C227.063 38.9661 226.766 38.6136 226.494 38.1807C226.222 37.7477 226.03 37.2282 225.919 36.6221C225.808 36.016 225.752 35.2923 225.752 34.4512C225.752 33.5605 225.845 32.806 226.03 32.1875C226.216 31.569 226.488 31.0557 226.847 30.6475C227.205 30.2393 227.694 29.9238 228.312 29.7012C228.943 29.4661 229.648 29.3053 230.428 29.2188C231.207 29.1198 232.16 29.0703 233.285 29.0703C233.99 29.0703 234.565 29.0827 235.011 29.1074C235.468 29.1198 235.963 29.1631 236.495 29.2373C237.039 29.2992 237.479 29.3919 237.812 29.5156C238.146 29.6393 238.48 29.8125 238.814 30.0352C239.161 30.2578 239.427 30.5361 239.612 30.8701C239.798 31.1917 239.946 31.5876 240.058 32.0576C240.181 32.5277 240.243 33.0658 240.243 33.6719L237.757 34.4326C237.707 33.9502 237.658 33.5729 237.608 33.3008C237.571 33.0163 237.479 32.7565 237.33 32.5215C237.182 32.2865 237.027 32.1195 236.866 32.0205C236.705 31.9215 236.427 31.835 236.031 31.7607C235.648 31.6865 235.258 31.6432 234.862 31.6309C234.466 31.6185 233.897 31.6123 233.155 31.6123C231.572 31.6123 230.496 31.7731 229.927 32.0947C229.37 32.404 229.092 32.9173 229.092 33.6348V35.5273C229.092 36.3438 229.333 36.8633 229.815 37.0859C230.31 37.2962 231.621 37.5374 233.749 37.8096C233.972 37.8467 234.139 37.8714 234.25 37.8838C235.104 37.9827 235.778 38.0755 236.272 38.1621C236.78 38.2487 237.312 38.3662 237.868 38.5146C238.425 38.6507 238.845 38.8177 239.13 39.0156C239.427 39.2012 239.717 39.4424 240.002 39.7393C240.299 40.0361 240.509 40.401 240.633 40.834C240.769 41.2669 240.874 41.7679 240.948 42.3369C241.035 42.9059 241.078 43.5801 241.078 44.3594ZM260.616 50H257.722L257.128 47.0869C256.757 48.361 256.083 49.2145 255.105 49.6475C254.141 50.068 252.724 50.2783 250.856 50.2783C249.619 50.2783 248.605 50.1608 247.813 49.9258C247.022 49.6784 246.391 49.2702 245.921 48.7012C245.451 48.1322 245.123 47.4395 244.938 46.623C244.764 45.7943 244.678 44.7305 244.678 43.4316C244.678 42.8503 244.777 42.3307 244.975 41.873C245.185 41.4154 245.463 41.0257 245.81 40.7041C246.168 40.3825 246.638 40.1042 247.22 39.8691C247.813 39.6341 248.426 39.4486 249.057 39.3125C249.688 39.1764 250.448 39.0713 251.339 38.9971C252.242 38.9105 253.12 38.8548 253.974 38.8301C254.827 38.8053 255.823 38.793 256.961 38.793V33.2822C256.961 32.6514 256.664 32.2184 256.07 31.9834C255.477 31.736 254.419 31.6123 252.897 31.6123C251.834 31.6123 251.036 31.637 250.504 31.6865C249.972 31.736 249.564 31.8844 249.279 32.1318C249.007 32.3669 248.846 32.6019 248.797 32.8369C248.76 33.0719 248.735 33.5111 248.723 34.1543C248.71 34.3893 248.704 34.5749 248.704 34.7109L245.865 34.5996C245.84 34.4017 245.828 34.111 245.828 33.7275C245.828 32.8988 245.946 32.1999 246.181 31.6309C246.428 31.0495 246.743 30.598 247.127 30.2764C247.51 29.9424 248.036 29.6826 248.704 29.4971C249.372 29.3115 250.034 29.194 250.689 29.1445C251.345 29.0951 252.161 29.0703 253.139 29.0703C254.623 29.0703 255.829 29.1878 256.757 29.4229C257.685 29.6455 258.445 30.0537 259.039 30.6475C259.633 31.2412 260.041 32.002 260.264 32.9297C260.499 33.8451 260.616 35.0449 260.616 36.5293V50ZM256.961 44.1738V41.001C254.524 41.001 252.65 41.0938 251.339 41.2793C250.028 41.4648 249.149 41.7246 248.704 42.0586C248.271 42.3802 248.055 42.8379 248.055 43.4316C248.055 43.4564 248.055 43.4935 248.055 43.543C248.055 45.4232 248.209 46.5921 248.519 47.0498C248.828 47.5075 249.774 47.7363 251.357 47.7363C252.706 47.7363 253.8 47.5755 254.642 47.2539C255.483 46.9323 256.064 46.5241 256.386 46.0293C256.72 45.5221 256.911 44.9036 256.961 44.1738ZM270.079 50H266.424V29.6455H270.079V50ZM270.079 21.7783V24.9883H266.424V21.7783H270.079ZM292.066 50H288.411V37.6797C288.411 36.888 288.405 36.2572 288.393 35.7871C288.393 35.3047 288.368 34.8223 288.318 34.3398C288.281 33.8574 288.238 33.4987 288.188 33.2637C288.139 33.0163 288.046 32.7751 287.91 32.54C287.786 32.2926 287.657 32.1257 287.521 32.0391C287.384 31.9525 287.187 31.8721 286.927 31.7979C286.667 31.7113 286.407 31.6618 286.147 31.6494C285.888 31.637 285.541 31.6309 285.108 31.6309C284.168 31.6309 283.364 31.6865 282.696 31.7979C282.041 31.8968 281.503 32.0391 281.082 32.2246C280.661 32.4102 280.334 32.6699 280.099 33.0039C279.876 33.3379 279.721 33.7028 279.635 34.0986C279.548 34.4821 279.505 34.9583 279.505 35.5273C279.505 35.849 279.523 36.4118 279.561 37.2158C279.598 38.0075 279.616 38.6507 279.616 39.1455V50H275.961V29.6455H279.301L279.653 31.9277C279.975 30.9134 280.686 30.1836 281.787 29.7383C282.888 29.293 284.199 29.0703 285.721 29.0703C286.438 29.0703 287.075 29.1136 287.632 29.2002C288.188 29.2868 288.683 29.4352 289.116 29.6455C289.549 29.8434 289.92 30.0723 290.229 30.332C290.551 30.5918 290.817 30.9382 291.027 31.3711C291.25 31.7917 291.429 32.2246 291.565 32.6699C291.701 33.1152 291.807 33.6719 291.881 34.3398C291.955 35.0078 292.005 35.6758 292.029 36.3438C292.054 36.9993 292.066 37.7848 292.066 38.7002V50Z" fill="#F3F3F3"/>
<path d="M332 2L303 75.5" stroke="#367DD0" stroke-width="1.5"/>
</svg>
